# xmcd
#
# Track frame offsets:
#	150
#	13020
#	27677
#	42430
#	56585
#	71740
#	84202
#	98075
#	111152
#	123820
#	137257
#	152752
#	165242
#	179510
#	193220
#	207465
#	220425
#	234105
#	248415
#
# Disc length: 3494 seconds
#
# Revision: 1
# Processed by: cddbd v1.5.2PL0 Copyright (c) Steve Scherf et al.
# Submitted via: audiograbber 1.83.01
#
DISCID=fe0da413
DTITLE=Judy Garland - Stars Of The Silver Screen [Disc 2] Judy In Love
DYEAR=2007
DGENRE=Easy Listening
TTITLE0=Embraceable You
TTITLE1=For You, For Me, For Evermore (with Dick Haymes)
TTITLE2=This Heart Of Mine
TTITLE3=The Boy Next Door
TTITLE4=If I Had You (with the Merry Macs)
TTITLE5=That Old Black Magic
TTITLE6=Aren't You Kinda Glad We Did? (with Dick Haymes)
TTITLE7=You've Got Me Where You Want Me (with Bing Crosby)
TTITLE8=I Wish I Were In Love Again
TTITLE9=Zing! Went The Strings Of My Heart
TTITLE10=Love
TTITLE11=Mine (with Bing Crosby)
TTITLE12=Oceans Apart
TTITLE13=How About You?
TTITLE14=Boys And Girls Like You And Me
TTITLE15=Our Love Affair
TTITLE16=(Can This Be) The End Of The Rainbow
TTITLE17=Love Of My Life
TTITLE18=Could You Use Me?
EXTD=
EXTT0=
EXTT1=
EXTT2=
EXTT3=
EXTT4=
EXTT5=
EXTT6=
EXTT7=
EXTT8=
EXTT9=
EXTT10=
EXTT11=
EXTT12=
EXTT13=
EXTT14=
EXTT15=
EXTT16=
EXTT17=
EXTT18=
PLAYORDER=
